<svg width="112" height="19" viewBox="0 0 112 19" fill="none" xmlns="http://www.w3.org/2000/svg">
<path d="M7.325 18.3C6.075 18.3 4.94167 18.0583 3.925 17.575C2.925 17.075 2.125 16.3167 1.525 15.3C0.941667 14.2833 0.65 12.9917 0.65 11.425V0.499999H3.3V11.45C3.3 12.9833 3.66667 14.1083 4.4 14.825C5.13333 15.5417 6.125 15.9 7.375 15.9C8.60833 15.9 9.59167 15.5417 10.325 14.825C11.0583 14.1083 11.425 12.9833 11.425 11.45V0.499999H14.075V11.425C14.075 12.9917 13.7667 14.2833 13.15 15.3C12.55 16.3167 11.7333 17.075 10.7 17.575C9.68333 18.0583 8.55833 18.3 7.325 18.3ZM22.8242 18.3C21.2576 18.3 19.9659 17.9167 18.9492 17.15C17.9326 16.3833 17.3492 15.3667 17.1992 14.1H19.8742C20.0076 14.6667 20.3242 15.1583 20.8242 15.575C21.3242 15.975 21.9826 16.175 22.7992 16.175C23.5992 16.175 24.1826 16.0083 24.5492 15.675C24.9159 15.3417 25.0992 14.9583 25.0992 14.525C25.0992 13.8917 24.8409 13.4667 24.3242 13.25C23.8242 13.0167 23.1242 12.8083 22.2242 12.625C21.5242 12.475 20.8242 12.275 20.1242 12.025C19.4409 11.775 18.8659 11.425 18.3992 10.975C17.9492 10.5083 17.7242 9.88333 17.7242 9.1C17.7242 8.01667 18.1409 7.11667 18.9742 6.4C19.8076 5.66667 20.9742 5.3 22.4742 5.3C23.8576 5.3 24.9742 5.63333 25.8242 6.3C26.6909 6.96667 27.1992 7.90833 27.3492 9.125H24.7992C24.7159 8.59167 24.4659 8.175 24.0492 7.875C23.6492 7.575 23.1076 7.425 22.4242 7.425C21.7576 7.425 21.2409 7.56667 20.8742 7.85C20.5076 8.11667 20.3242 8.46667 20.3242 8.9C20.3242 9.33333 20.5742 9.675 21.0742 9.925C21.5909 10.175 22.2659 10.4 23.0992 10.6C23.9326 10.7833 24.6992 11 25.3992 11.25C26.1159 11.4833 26.6909 11.8333 27.1242 12.3C27.5576 12.7667 27.7742 13.45 27.7742 14.35C27.7909 15.4833 27.3492 16.425 26.4492 17.175C25.5659 17.925 24.3576 18.3 22.8242 18.3ZM36.9672 18.3C35.7505 18.3 34.6672 18.0333 33.7172 17.5C32.7839 16.95 32.0505 16.1917 31.5172 15.225C30.9839 14.2583 30.7172 13.1333 30.7172 11.85C30.7172 10.55 30.9755 9.40833 31.4922 8.425C32.0255 7.44167 32.7589 6.675 33.6922 6.125C34.6422 5.575 35.7422 5.3 36.9922 5.3C38.2089 5.3 39.2672 5.575 40.1672 6.125C41.0672 6.65833 41.7672 7.375 42.2672 8.275C42.7672 9.175 43.0172 10.1667 43.0172 11.25C43.0172 11.4167 43.0089 11.6 42.9922 11.8C42.9922 11.9833 42.9839 12.1917 42.9672 12.425H33.3172C33.4005 13.625 33.7922 14.5417 34.4922 15.175C35.2089 15.7917 36.0339 16.1 36.9672 16.1C37.7172 16.1 38.3422 15.9333 38.8422 15.6C39.3589 15.25 39.7422 14.7833 39.9922 14.2H42.6422C42.3089 15.3667 41.6422 16.3417 40.6422 17.125C39.6589 17.9083 38.4339 18.3 36.9672 18.3ZM36.9672 7.475C36.0839 7.475 35.3005 7.74167 34.6172 8.275C33.9339 8.79167 33.5172 9.575 33.3672 10.625H40.3672C40.3172 9.65833 39.9755 8.89167 39.3422 8.325C38.7089 7.75833 37.9172 7.475 36.9672 7.475ZM46.2668 18V5.6H48.6418L48.8668 7.95C49.3001 7.13333 49.9001 6.49167 50.6668 6.025C51.4501 5.54167 52.3918 5.3 53.4918 5.3V8.075H52.7668C52.0335 8.075 51.3751 8.2 50.7918 8.45C50.2251 8.68333 49.7668 9.09167 49.4168 9.675C49.0835 10.2417 48.9168 11.0333 48.9168 12.05V18H46.2668Z" fill="#0046FF"/>
<path d="M56.3639 18V0.499999H59.0139V8H67.4889V0.499999H70.1389V18H67.4889V10.175H59.0139V18H56.3639ZM78.6729 18.3C77.1729 18.3 75.9895 17.8333 75.1229 16.9C74.2729 15.9667 73.8479 14.575 73.8479 12.725V5.6H76.4979V12.45C76.4979 14.85 77.4812 16.05 79.4479 16.05C80.4312 16.05 81.2395 15.7 81.8729 15C82.5062 14.3 82.8229 13.3 82.8229 12V5.6H85.4729V18H83.1229L82.9229 15.825C82.5395 16.5917 81.9729 17.2 81.2229 17.65C80.4895 18.0833 79.6395 18.3 78.6729 18.3ZM89.3439 18V5.6H91.6939L91.8939 7.775C92.2773 7.00833 92.8356 6.40833 93.5689 5.975C94.3189 5.525 95.1773 5.3 96.1439 5.3C97.6439 5.3 98.8189 5.76667 99.6689 6.7C100.536 7.63333 100.969 9.025 100.969 10.875V18H98.3439V11.15C98.3439 8.75 97.3606 7.55 95.3939 7.55C94.4106 7.55 93.5939 7.9 92.9439 8.6C92.3106 9.3 91.9939 10.3 91.9939 11.6V18H89.3439ZM109.79 18C108.573 18 107.607 17.7083 106.89 17.125C106.173 16.525 105.815 15.4667 105.815 13.95V7.825H103.69V5.6H105.815L106.14 2.45H108.465V5.6H111.965V7.825H108.465V13.95C108.465 14.6333 108.607 15.1083 108.89 15.375C109.19 15.625 109.698 15.75 110.415 15.75H111.84V18H109.79Z" fill="#333333"/>
</svg>
